<?xml version="1.0" standalone="no"?>
<!DOCTYPE svg PUBLIC "-//W3C//DTD SVG 20010904//EN"
 "http://www.w3.org/TR/2001/REC-SVG-20010904/DTD/svg10.dtd">
<svg version="1.0" xmlns="http://www.w3.org/2000/svg"
 width="1000.000000pt" height="1000.000000pt" viewBox="0 0 1000.000000 1000.000000"
 preserveAspectRatio="xMidYMid meet">
<metadata>
Created by potrace 1.11, written by Peter Selinger 2001-2013
</metadata>
<g transform="translate(0.000000,1000.000000) scale(0.100000,-0.100000)"
fill="#000000" stroke="none">
<path d="M4696 9939 c-840 -48 -1681 -325 -2389 -786 -304 -198 -520 -374
-798 -652 -418 -418 -707 -823 -955 -1336 -750 -1555 -635 -3388 303 -4828
198 -304 374 -520 652 -798 418 -418 823 -707 1336 -955 1361 -656 2929 -656
4290 0 513 248 918 537 1336 955 277 277 452 491 653 798 556 851 840 1903
787 2910 -57 1102 -438 2084 -1135 2928 -128 154 -477 503 -631 631 -979 808
-2188 1205 -3449 1133z m-2176 -1685 l0 -184 255 0 255 0 0 190 0 190 1980 0
1980 0 0 -190 0 -190 255 0 255 0 0 189 0 189 41 -9 c169 -38 311 -191 339
-365 6 -37 10 -923 10 -2339 l0 -2280 -957 -957 -958 -956 -1472 -6 -1473 -6
0 190 0 190 -255 0 -255 0 0 -186 0 -187 -37 6 c-62 10 -165 67 -219 121 -57
58 -109 156 -124 235 -14 75 -13 6139 1 6200 25 109 103 219 199 281 50 32
158 72 173 63 4 -2 7 -87 7 -189z"/>
<path d="M3410 6715 l0 -1345 1598 2 1597 3 3 1343 2 1342 -1600 0 -1600 0 0
-1345z"/>
<path d="M2520 7295 l0 -385 255 0 255 0 0 385 0 385 -255 0 -255 0 0 -385z"/>
<path d="M6990 7295 l0 -385 255 0 255 0 0 385 0 385 -255 0 -255 0 0 -385z"/>
<path d="M2520 6145 l0 -385 255 0 255 0 -2 383 -3 382 -252 3 -253 2 0 -385z"/>
<path d="M6990 6145 l0 -385 255 0 255 0 0 385 0 385 -255 0 -255 0 0 -385z"/>
<path d="M2520 4990 l0 -380 255 0 255 0 0 380 0 380 -255 0 -255 0 0 -380z"/>
<path d="M6990 4990 l0 -380 255 0 255 0 0 380 0 380 -255 0 -255 0 0 -380z"/>
<path d="M3410 3255 l0 -1345 1280 0 1280 0 0 770 0 770 320 0 320 0 0 575 0
575 -1600 0 -1600 0 0 -1345z"/>
<path d="M2520 3835 l0 -385 255 0 255 0 0 385 0 385 -255 0 -255 0 0 -385z"/>
<path d="M6990 3835 l0 -385 255 0 255 0 0 385 0 385 -255 0 -255 0 0 -385z"/>
<path d="M2520 2685 l0 -385 255 0 255 0 0 385 0 385 -255 0 -255 0 0 -385z"/>
</g>
</svg>
